<svg version="1.1" xmlns="http://www.w3.org/2000/svg" x="0" y="0" width="64" height="64" viewBox="0 0 48 48" xml:space="preserve"><g class="nc-icon-wrapper"><path fill="#335262" d="M36 15.5a1.5 1.5 0 0 1-1.06-2.56l4-4a1.5 1.5 0 1 1 2.12 2.12l-4 4c-.292.294-.676.44-1.06.44z"/><circle fill="#FFF" cx="24" cy="28" r="18"/><path fill="#335262" d="M24 48C12.972 48 4 39.028 4 28S12.972 8 24 8s20 8.972 20 20-8.972 20-20 20zm0-36c-8.822 0-16 7.178-16 16s7.178 16 16 16 16-7.178 16-16-7.178-16-16-16z"/><path fill="#335262" d="M24 10c-2.757 0-5-2.243-5-5s2.243-5 5-5 5 2.243 5 5-2.243 5-5 5zm0-8c-1.654 0-3 1.346-3 3s1.346 3 3 3 3-1.346 3-3-1.346-3-3-3z"/><path fill="#E86C60" d="M22.586 26.586c.78-.781 9.9-7.071 9.9-7.071s-6.29 9.118-7.072 9.9a2 2 0 0 1-2.828-2.83z"/><path fill="#B3B3B3" d="M24 18a1 1 0 0 1-1-1v-2a1 1 0 1 1 2 0v2a1 1 0 0 1-1 1z"/><path fill="#B3B3B3" d="M34 28a1 1 0 0 1 1-1h2a1 1 0 1 1 0 2h-2a1 1 0 0 1-1-1z"/><path fill="#B3B3B3" d="M24 38a1 1 0 0 1 1 1v2a1 1 0 1 1-2 0v-2a1 1 0 0 1 1-1z"/><path fill="#B3B3B3" d="M14 28a1 1 0 0 1-1 1h-2a1 1 0 1 1 0-2h2a1 1 0 0 1 1 1z"/><path fill="#B3B3B3" d="M42.172 14.9L35.1 7.827a1 1 0 0 1 0-1.414l2.12-2.121a1 1 0 0 1 1.415 0l7.071 7.071a1 1 0 0 1 0 1.414L43.586 14.9a1 1 0 0 1-1.414 0z"/><path fill="#335262" d="M12 15.5c-.384 0-.768-.146-1.06-.44l-4-4a1.5 1.5 0 1 1 2.12-2.12l4 4A1.5 1.5 0 0 1 12 15.5z"/><path fill="#B3B3B3" d="M5.828 14.9L12.9 7.827a1 1 0 0 0 0-1.414l-2.12-2.121a1 1 0 0 0-1.415 0l-7.071 7.071a1 1 0 0 0 0 1.414L4.414 14.9a1 1 0 0 0 1.414 0z"/></g></svg>