<?xml version="1.0" encoding="UTF-8"?>
<svg width="512px" height="512px" viewBox="0 0 512 512" version="1.1" xmlns="http://www.w3.org/2000/svg" xmlns:xlink="http://www.w3.org/1999/xlink">
    <!-- Generator: Sketch 55.1 (78136) - https://sketchapp.com -->
    <title>Icon</title>
    <desc>Created with Sketch.</desc>
    <g id="Icon" stroke="none" stroke-width="1" fill="none" fill-rule="evenodd">
        <g id="logo" transform="translate(38.000000, 17.000000)" fill-rule="nonzero">
            <path d="M330.549184,154 C324.259027,153.994468 318.590694,150.203561 316.184304,144.392955 C313.777913,138.582349 315.106693,131.894724 319.551741,127.444953 L361.051525,85.9526916 C364.931144,81.7899146 370.774002,80.0763671 376.28794,81.4842751 C381.801879,82.892183 386.107474,87.1969974 387.515637,92.7099365 C388.9238,98.2228756 387.209942,104.064674 383.04641,107.94359 L341.546626,149.435851 C338.517142,152.485532 334.533163,154 330.549184,154 L330.549184,154 Z" id="Path" fill="#335262"></path>
            <ellipse id="Oval" fill="#FFFFFF" cx="217.5" cy="275" rx="177.5" ry="178"></ellipse>
            <path d="M213.5,477 C104.5985,477 16,388.1772 16,279 C16,169.8228 104.5985,81 213.5,81 C322.4015,81 411,169.8228 411,279 C411,388.1772 322.4015,477 213.5,477 Z M213.5,120.6 C126.38275,120.6 55.5,191.6622 55.5,279 C55.5,366.3378 126.38275,437.4 213.5,437.4 C300.61725,437.4 371.5,366.3378 371.5,279 C371.5,191.6622 300.61725,120.6 213.5,120.6 Z" id="Shape" fill="#335262"></path>
            <path d="M218.5,97 C191.7571,97 170,75.2429 170,48.5 C170,21.7571 191.7571,0 218.5,0 C245.2429,0 267,21.7571 267,48.5 C267,75.2429 245.2429,97 218.5,97 Z M218.5,19.4 C202.4562,19.4 189.4,32.4562 189.4,48.5 C189.4,64.5438 202.4562,77.6 218.5,77.6 C234.5438,77.6 247.6,64.5438 247.6,48.5 C247.6,32.4562 234.5438,19.4 218.5,19.4 Z" id="Shape" fill="#335262"></path>
            <path d="M397.361386,151.04443 L325.956231,79.6451284 C322.01459,75.7031778 322.01459,69.3132755 325.956231,65.3713249 L347.361622,43.9606196 C349.255477,42.0650803 351.825361,41 354.505167,41 C357.184973,41 359.754856,42.0650803 361.648711,43.9606196 L433.043769,115.339732 C436.98541,119.281682 436.98541,125.671585 433.043769,129.613535 L411.638378,151.04443 C407.695547,154.98519 401.304217,154.98519 397.361386,151.04443 Z" id="Path" fill="#B3B3B3"></path>
            <path d="M97.4508165,154 C93.4668372,154 89.4828579,152.485532 86.4533737,149.435851 L44.9535896,107.94359 C40.7900578,104.064674 39.0761997,98.2228756 40.4843629,92.7099365 C41.8925261,87.1969974 46.1981209,82.892183 51.7120596,81.4842751 C57.2259983,80.0763671 63.0688558,81.7899146 66.9484752,85.9526916 L108.448259,127.444953 C112.893307,131.894724 114.222087,138.582349 111.815696,144.392955 C109.409306,150.203561 103.740973,153.994468 97.4508165,154 L97.4508165,154 Z" id="Path" fill="#335262"></path>
            <path d="M38.6386143,151.04443 L110.043769,79.6451284 C113.98541,75.7031778 113.98541,69.3132755 110.043769,65.3713249 L88.638378,43.9606196 C86.7445232,42.0650803 84.1746394,41 81.4948334,41 C78.8150273,41 76.2451435,42.0650803 74.3512888,43.9606196 L2.95623051,115.339732 C-0.98541017,119.281682 -0.98541017,125.671585 2.95623051,129.613535 L24.361622,151.04443 C28.3044533,154.98519 34.6957831,154.98519 38.6386143,151.04443 Z" id="Path" fill="#B3B3B3"></path>
        </g>
        <g id="48px_ram" transform="translate(152.000000, 192.000000)" fill-rule="nonzero">
            <path d="M206.950957,176 C207.638881,173.040272 207.990778,170.012661 208,166.974359 L208,157.948718 C208,155.456356 205.975548,153.435897 203.478261,153.435897 C195.999304,153.435897 189.913043,147.361641 189.913043,139.897436 C189.913043,132.433231 195.999304,126.358974 203.478261,126.358974 C205.975548,126.358974 208,124.338516 208,121.846154 L208,85.7435897 C208,83.2512278 205.975548,81.2307692 203.478261,81.2307692 C195.999304,81.2307692 189.913043,75.1565128 189.913043,67.6923077 C189.913043,60.2281026 195.999304,54.1538462 203.478261,54.1538462 C205.975548,54.1538462 208,52.1333876 208,49.6410256 L208,40.6153846 C208,18.2227692 189.745739,0 167.304348,0 L40.6956522,0 C18.2542609,0 0,18.2227692 0,40.6153846 L0,49.6410256 C0,52.1333876 2.02445157,54.1538462 4.52173913,54.1538462 C12.0006957,54.1538462 18.0869565,60.2281026 18.0869565,67.6923077 C18.0869565,75.1565128 12.0006957,81.2307692 4.52173913,81.2307692 C2.02445157,81.2307692 0,83.2512278 0,85.7435897 L0,121.846154 C0,124.338516 2.02445157,126.358974 4.52173913,126.358974 C12.0006957,126.358974 18.0869565,132.433231 18.0869565,139.897436 C18.0869565,147.361641 12.0006957,153.435897 4.52173913,153.435897 C2.02445157,153.435897 0,155.456356 0,157.948718 L0,166.974359 C0,170.079179 0.384347826,173.093744 1.04904348,176 L206.950957,176 Z" id="Path" fill="#335262"></path>
            <path d="M2,176 C6.13031448,194.294857 22.3258521,208 41.6654954,208 L168.334505,208 C187.674148,208 203.869686,194.294857 208,176 L2,176 Z" id="Path" fill="#B3B3B3"></path>
            <path d="M77.75,90 L59.25,90 C54.1413661,90 50,85.8586339 50,80.75 L50,62.25 C50,57.1413661 54.1413661,53 59.25,53 L77.75,53 C82.8586339,53 87,57.1413661 87,62.25 L87,80.75 C87,85.8586339 82.8586339,90 77.75,90 Z" id="Path" fill="#FFFFFF"></path>
            <path d="M148.75,90 L130.25,90 C125.141366,90 121,85.8586339 121,80.75 L121,62.25 C121,57.1413661 125.141366,53 130.25,53 L148.75,53 C153.858634,53 158,57.1413661 158,62.25 L158,80.75 C158,85.8586339 153.858634,90 148.75,90 Z" id="Path" fill="#FFFFFF"></path>
            <path d="M77.75,155 L59.25,155 C54.1413661,155 50,150.858634 50,145.75 L50,127.25 C50,122.141366 54.1413661,118 59.25,118 L77.75,118 C82.8586339,118 87,122.141366 87,127.25 L87,145.75 C87,150.858634 82.8586339,155 77.75,155 Z" id="Path" fill="#FFFFFF"></path>
            <path d="M148.75,155 L130.25,155 C125.141366,155 121,150.858634 121,145.75 L121,127.25 C121,122.141366 125.141366,118 130.25,118 L148.75,118 C153.858634,118 158,122.141366 158,127.25 L158,145.75 C158,150.858634 153.858634,155 148.75,155 Z" id="Path" fill="#FFFFFF"></path>
            <path d="M45,221 L45,197 C45,192.581722 46.790861,189 49,189 C51.209139,189 53,192.581722 53,197 L53,221 L45,221 Z" id="Path" fill="#EA9860"></path>
            <path d="M73,221 L73,197 C73,192.581722 74.790861,189 77,189 C79.209139,189 81,192.581722 81,197 L81,221 L73,221 Z" id="Path" fill="#EA9860"></path>
            <path d="M100,221 L100,197 C100,192.581722 101.790861,189 104,189 C106.209139,189 108,192.581722 108,197 L108,221 L100,221 Z" id="Path" fill="#EA9860"></path>
            <path d="M127,221 L127,197 C127,192.581722 128.790861,189 131,189 C133.209139,189 135,192.581722 135,197 L135,221 L127,221 Z" id="Path" fill="#EA9860"></path>
            <path d="M155,221 L155,197 C155,192.581722 156.790861,189 159,189 C161.209139,189 163,192.581722 163,197 L163,221 L155,221 Z" id="Path" fill="#EA9860"></path>
        </g>
    </g>
</svg>